<mxfile host="app.diagrams.net" agent="Mozilla/5.0 (Windows NT 10.0; Win64; x64) AppleWebKit/537.36 (KHTML, like Gecko) Chrome/131.0.0.0 Safari/537.36 Edg/131.0.0.0" version="26.0.7">
  <diagram name="Page-1" id="956H6JY-0-MOLizt9Kqu">
    <mxGraphModel dx="1112" dy="469" grid="1" gridSize="10" guides="1" tooltips="1" connect="1" arrows="1" fold="1" page="1" pageScale="1" pageWidth="850" pageHeight="1100" math="0" shadow="0">
      <root>
        <mxCell id="0" />
        <mxCell id="1" parent="0" />
        <mxCell id="LlnNoyW3Q7HJ8SOHD1GW-13" style="edgeStyle=orthogonalEdgeStyle;rounded=0;orthogonalLoop=1;jettySize=auto;html=1;" edge="1" parent="1" source="LlnNoyW3Q7HJ8SOHD1GW-1" target="LlnNoyW3Q7HJ8SOHD1GW-6">
          <mxGeometry relative="1" as="geometry" />
        </mxCell>
        <mxCell id="LlnNoyW3Q7HJ8SOHD1GW-1" value="" style="sketch=0;points=[[0,0,0],[0.25,0,0],[0.5,0,0],[0.75,0,0],[1,0,0],[0,1,0],[0.25,1,0],[0.5,1,0],[0.75,1,0],[1,1,0],[0,0.25,0],[0,0.5,0],[0,0.75,0],[1,0.25,0],[1,0.5,0],[1,0.75,0]];outlineConnect=0;fontColor=#232F3E;fillColor=#7AA116;strokeColor=#ffffff;dashed=0;verticalLabelPosition=bottom;verticalAlign=top;align=center;html=1;fontSize=12;fontStyle=0;aspect=fixed;shape=mxgraph.aws4.resourceIcon;resIcon=mxgraph.aws4.s3;" vertex="1" parent="1">
          <mxGeometry x="94.4" y="360" width="78" height="78" as="geometry" />
        </mxCell>
        <mxCell id="LlnNoyW3Q7HJ8SOHD1GW-2" value="" style="sketch=0;outlineConnect=0;fontColor=#232F3E;gradientColor=none;fillColor=#8C4FFF;strokeColor=none;dashed=0;verticalLabelPosition=bottom;verticalAlign=top;align=center;html=1;fontSize=12;fontStyle=0;aspect=fixed;pointerEvents=1;shape=mxgraph.aws4.glue_data_catalog;" vertex="1" parent="1">
          <mxGeometry x="450" y="360" width="72" height="78" as="geometry" />
        </mxCell>
        <mxCell id="LlnNoyW3Q7HJ8SOHD1GW-3" value="" style="sketch=0;points=[[0,0,0],[0.25,0,0],[0.5,0,0],[0.75,0,0],[1,0,0],[0,1,0],[0.25,1,0],[0.5,1,0],[0.75,1,0],[1,1,0],[0,0.25,0],[0,0.5,0],[0,0.75,0],[1,0.25,0],[1,0.5,0],[1,0.75,0]];outlineConnect=0;fontColor=#232F3E;fillColor=#8C4FFF;strokeColor=#ffffff;dashed=0;verticalLabelPosition=bottom;verticalAlign=top;align=center;html=1;fontSize=12;fontStyle=0;aspect=fixed;shape=mxgraph.aws4.resourceIcon;resIcon=mxgraph.aws4.glue;" vertex="1" parent="1">
          <mxGeometry x="330" y="160" width="116" height="116" as="geometry" />
        </mxCell>
        <mxCell id="LlnNoyW3Q7HJ8SOHD1GW-4" value="" style="sketch=0;points=[[0,0,0],[0.25,0,0],[0.5,0,0],[0.75,0,0],[1,0,0],[0,1,0],[0.25,1,0],[0.5,1,0],[0.75,1,0],[1,1,0],[0,0.25,0],[0,0.5,0],[0,0.75,0],[1,0.25,0],[1,0.5,0],[1,0.75,0]];outlineConnect=0;fontColor=#232F3E;fillColor=#8C4FFF;strokeColor=#ffffff;dashed=0;verticalLabelPosition=bottom;verticalAlign=top;align=center;html=1;fontSize=12;fontStyle=0;aspect=fixed;shape=mxgraph.aws4.resourceIcon;resIcon=mxgraph.aws4.athena;" vertex="1" parent="1">
          <mxGeometry x="610" y="360" width="78" height="78" as="geometry" />
        </mxCell>
        <mxCell id="LlnNoyW3Q7HJ8SOHD1GW-5" value="" style="dashed=0;outlineConnect=0;html=1;align=center;labelPosition=center;verticalLabelPosition=bottom;verticalAlign=top;shape=mxgraph.webicons.json;gradientColor=#DFDEDE" vertex="1" parent="1">
          <mxGeometry x="110" y="260" width="102.4" height="102.4" as="geometry" />
        </mxCell>
        <mxCell id="LlnNoyW3Q7HJ8SOHD1GW-14" style="edgeStyle=orthogonalEdgeStyle;rounded=0;orthogonalLoop=1;jettySize=auto;html=1;" edge="1" parent="1" source="LlnNoyW3Q7HJ8SOHD1GW-6" target="LlnNoyW3Q7HJ8SOHD1GW-2">
          <mxGeometry relative="1" as="geometry" />
        </mxCell>
        <mxCell id="LlnNoyW3Q7HJ8SOHD1GW-6" value="" style="sketch=0;outlineConnect=0;fontColor=#232F3E;gradientColor=none;fillColor=#8C4FFF;strokeColor=none;dashed=0;verticalLabelPosition=bottom;verticalAlign=top;align=center;html=1;fontSize=12;fontStyle=0;aspect=fixed;pointerEvents=1;shape=mxgraph.aws4.glue_crawlers;" vertex="1" parent="1">
          <mxGeometry x="280" y="360" width="78" height="78" as="geometry" />
        </mxCell>
        <mxCell id="LlnNoyW3Q7HJ8SOHD1GW-7" value="" style="dashed=0;outlineConnect=0;html=1;align=center;labelPosition=center;verticalLabelPosition=bottom;verticalAlign=top;shape=mxgraph.webicons.json;gradientColor=#DFDEDE" vertex="1" parent="1">
          <mxGeometry x="82.2" y="260" width="102.4" height="102.4" as="geometry" />
        </mxCell>
        <mxCell id="LlnNoyW3Q7HJ8SOHD1GW-12" style="edgeStyle=orthogonalEdgeStyle;rounded=0;orthogonalLoop=1;jettySize=auto;html=1;" edge="1" parent="1" source="LlnNoyW3Q7HJ8SOHD1GW-11">
          <mxGeometry relative="1" as="geometry">
            <mxPoint x="122.20000000000005" y="250" as="targetPoint" />
          </mxGeometry>
        </mxCell>
        <mxCell id="LlnNoyW3Q7HJ8SOHD1GW-11" value="" style="fillColor=#C82128;aspect=fixed;sketch=0;pointerEvents=1;shadow=0;dashed=0;html=1;strokeColor=none;labelPosition=center;verticalLabelPosition=bottom;outlineConnect=0;verticalAlign=top;align=center;shape=mxgraph.openstack.nova_server;" vertex="1" parent="1">
          <mxGeometry x="82.2" y="100" width="80" height="80" as="geometry" />
        </mxCell>
        <mxCell id="LlnNoyW3Q7HJ8SOHD1GW-15" style="edgeStyle=orthogonalEdgeStyle;rounded=0;orthogonalLoop=1;jettySize=auto;html=1;entryX=0;entryY=0.5;entryDx=0;entryDy=0;entryPerimeter=0;" edge="1" parent="1" source="LlnNoyW3Q7HJ8SOHD1GW-2" target="LlnNoyW3Q7HJ8SOHD1GW-4">
          <mxGeometry relative="1" as="geometry" />
        </mxCell>
        <mxCell id="LlnNoyW3Q7HJ8SOHD1GW-16" value="Amazon S3" style="text;strokeColor=none;align=center;fillColor=none;html=1;verticalAlign=middle;whiteSpace=wrap;rounded=0;" vertex="1" parent="1">
          <mxGeometry x="102.19999999999999" y="438" width="60" height="30" as="geometry" />
        </mxCell>
        <mxCell id="LlnNoyW3Q7HJ8SOHD1GW-17" value="Crawler" style="text;strokeColor=none;align=center;fillColor=none;html=1;verticalAlign=middle;whiteSpace=wrap;rounded=0;" vertex="1" parent="1">
          <mxGeometry x="289" y="430" width="60" height="30" as="geometry" />
        </mxCell>
        <mxCell id="LlnNoyW3Q7HJ8SOHD1GW-18" value="AWS Glue Data Catalog" style="text;strokeColor=none;align=center;fillColor=none;html=1;verticalAlign=middle;whiteSpace=wrap;rounded=0;" vertex="1" parent="1">
          <mxGeometry x="462" y="450" width="60" height="30" as="geometry" />
        </mxCell>
        <mxCell id="LlnNoyW3Q7HJ8SOHD1GW-19" value="Amazon Athena" style="text;strokeColor=none;align=center;fillColor=none;html=1;verticalAlign=middle;whiteSpace=wrap;rounded=0;" vertex="1" parent="1">
          <mxGeometry x="619" y="438" width="60" height="30" as="geometry" />
        </mxCell>
        <mxCell id="LlnNoyW3Q7HJ8SOHD1GW-20" value="AWS Glue" style="text;strokeColor=none;align=center;fillColor=none;html=1;verticalAlign=middle;whiteSpace=wrap;rounded=0;" vertex="1" parent="1">
          <mxGeometry x="358" y="280" width="60" height="30" as="geometry" />
        </mxCell>
        <mxCell id="LlnNoyW3Q7HJ8SOHD1GW-21" value="Sportdata.io" style="text;strokeColor=none;align=center;fillColor=none;html=1;verticalAlign=middle;whiteSpace=wrap;rounded=0;" vertex="1" parent="1">
          <mxGeometry x="172.39999999999998" y="130" width="60" height="30" as="geometry" />
        </mxCell>
      </root>
    </mxGraphModel>
  </diagram>
</mxfile>
